<?xml version="1.0" encoding="UTF-8"?>
<!DOCTYPE svg PUBLIC "-//W3C//DTD SVG 1.1//EN" "http://www.w3.org/Graphics/SVG/1.1/DTD/svg11.dtd">
<!-- Creator: CorelDRAW X8 -->
<svg xmlns="http://www.w3.org/2000/svg" xml:space="preserve" width="160mm" height="50mm" version="1.1" style="shape-rendering:geometricPrecision; text-rendering:geometricPrecision; image-rendering:optimizeQuality; fill-rule:evenodd; clip-rule:evenodd"
viewBox="0 0 16000 5000"
 xmlns:xlink="http://www.w3.org/1999/xlink">
 <defs>
  <style type="text/css">
   <![CDATA[
    .fil0 {fill:#008DD2}
    .fil3 {fill:#4C4C4C}
    .fil2 {fill:#3F3F3F;fill-rule:nonzero}
    .fil1 {fill:#008DD2;fill-rule:nonzero}
   ]]>
  </style>
 </defs>
 <g id="Слой_x0020_1">
  <metadata id="CorelCorpID_0Corel-Layer"/>
  <g id="_2025755389936">
   <g>
    <path class="fil0" d="M4749 1364c-31,-12 -179,-139 -211,-166 -33,-28 -181,-156 -212,-166l-149 130c-65,55 -409,380 -445,394l-64 -129c-38,14 -877,625 -916,655 55,-23 559,-331 656,-389 46,-27 176,-112 215,-125l22 189 147 -126c53,-42 101,-78 160,-117 316,-210 494,-154 811,19 61,33 119,68 172,105 34,23 140,101 167,111l-151 -335 571 291c-14,-85 -78,-155 -90,-336 -6,-105 17,-282 81,-341l1103 821c36,27 128,102 166,117l-44 -216 270 38 -43 -211 720 402c-22,-32 -136,-108 -176,-136 -81,-57 -539,-396 -558,-395 -26,3 -308,219 -374,245l-1138 -942c-21,9 -1,-2 -24,17l-666 596z"/>
    <path class="fil0" d="M3234 2368c65,-16 150,-56 216,-80 725,-262 1012,-201 1767,-72 344,59 687,127 1051,123 311,-3 759,-71 932,-244 -145,24 -229,68 -480,98 -581,70 -1008,-45 -1558,-156 -346,-71 -730,-55 -1078,8 -158,28 -321,70 -461,123 -125,46 -234,96 -346,166 -24,15 -28,15 -43,34z"/>
   </g>
   <path class="fil1" d="M304 4667l56 -707 41 -884 27 -879c1,-38 2,-139 2,-302 150,2 292,4 424,4 99,0 229,-2 391,-7 161,-4 301,-6 419,-6 159,0 307,10 443,29 136,19 254,54 356,106 101,53 189,118 264,196 74,79 135,166 182,261 47,96 84,202 109,319 25,117 37,237 37,359 0,233 -40,454 -120,665 -81,210 -201,384 -361,521 -159,138 -337,226 -531,266 -194,39 -415,59 -661,59l-690 -5c-44,0 -173,2 -388,5zm623 -437c111,6 221,9 329,9 123,0 237,-7 342,-19 105,-12 195,-31 271,-58 76,-26 152,-72 229,-138 76,-67 139,-143 188,-230 48,-87 86,-184 111,-291 26,-107 39,-215 39,-326 0,-203 -35,-369 -104,-499 -68,-130 -160,-224 -273,-281 -113,-58 -287,-87 -523,-87 -153,0 -328,3 -525,8l-84 1912z"/>
   <path class="fil1" d="M3557 3050c20,-96 32,-164 37,-202 5,-39 13,-97 26,-176 184,-43 346,-73 487,-90 141,-18 277,-27 408,-27 149,0 287,18 411,52 124,34 222,90 293,165 70,76 105,185 105,327 0,77 -11,273 -32,589 -21,316 -34,642 -38,979 -103,-3 -198,-5 -284,-5 -83,0 -180,2 -290,5 18,-164 32,-353 43,-568l27 -505c-52,34 -91,58 -119,72 -27,13 -57,25 -91,37 -34,11 -94,29 -180,53 -86,23 -154,44 -206,61 -51,18 -98,39 -140,61 -41,22 -76,47 -105,74 -28,28 -49,57 -62,88 -13,30 -19,64 -19,99 0,57 16,106 50,147 33,41 75,70 125,86 50,16 110,25 178,25 44,0 89,-4 138,-11 48,-7 113,-24 194,-52 -28,77 -61,192 -99,345 -97,17 -173,27 -230,31 -57,4 -110,7 -159,7 -170,0 -311,-23 -420,-70 -111,-45 -192,-118 -244,-219 -51,-99 -78,-201 -78,-302 0,-58 11,-115 31,-172 20,-57 50,-109 89,-156 40,-48 90,-93 152,-137 63,-44 153,-87 271,-128 118,-41 274,-83 468,-125 51,-10 104,-24 161,-39 55,-16 99,-31 133,-45 33,-16 61,-35 86,-59 24,-23 42,-48 53,-74 12,-25 18,-52 18,-79 0,-54 -18,-99 -52,-137 -35,-37 -79,-64 -135,-78 -54,-15 -115,-22 -182,-22 -247,0 -520,59 -819,175z"/>
   <path class="fil2" d="M7376 4201c-7,56 -17,118 -31,188 -14,71 -28,157 -44,261 -193,44 -383,67 -572,67 -109,0 -214,-11 -316,-31 -101,-20 -196,-56 -283,-109 -87,-52 -163,-120 -230,-205 -66,-86 -116,-189 -149,-310 -33,-121 -50,-246 -50,-374 0,-171 28,-335 83,-491 54,-157 135,-286 241,-385 105,-99 223,-167 352,-203 130,-36 274,-54 433,-54 88,0 178,5 272,16 93,10 204,31 332,63l29 445c-202,-69 -378,-104 -528,-104 -92,0 -179,15 -261,47 -82,31 -153,80 -211,146 -59,67 -102,144 -127,232 -24,88 -37,178 -37,269 0,128 20,239 60,333 40,94 108,167 206,218 97,51 208,77 333,77 60,0 134,-8 221,-22 87,-16 180,-40 277,-74z"/>
   <path class="fil2" d="M7791 4667l48 -660 48 -945 28 -1167c119,2 218,4 297,4 103,0 200,-2 294,-4l-37 485c-7,120 -18,313 -32,578 43,-65 79,-113 108,-146 30,-32 62,-62 98,-90 36,-27 73,-50 111,-70 38,-18 82,-35 133,-50 51,-15 107,-27 170,-34 62,-8 125,-13 190,-13 113,0 220,14 324,39 104,26 194,69 268,130 76,60 127,131 155,213 28,82 41,167 41,256 0,58 -3,149 -10,271l-48 885c-5,92 -7,198 -7,318 -109,-3 -205,-5 -289,-5 -91,0 -194,2 -311,5 18,-160 36,-377 55,-652 17,-275 26,-471 26,-587 0,-107 -17,-190 -52,-251 -35,-60 -85,-104 -153,-133 -67,-29 -140,-44 -220,-44 -103,0 -194,18 -273,55 -75,35 -139,88 -190,158 -42,58 -78,141 -106,249 -30,113 -51,289 -65,527 -7,115 -14,340 -22,678 -106,-3 -198,-5 -275,-5 -72,0 -174,2 -304,5z"/>
   <path class="fil2" d="M10571 2252c5,-140 8,-247 8,-321l0 -66c123,3 224,5 302,5 105,0 204,-2 295,-5 -5,34 -7,73 -9,116l-10 271c-103,-3 -198,-4 -285,-4 -86,0 -187,1 -301,4zm-107 2415c20,-203 34,-374 42,-510 14,-217 25,-466 36,-750 9,-282 16,-552 21,-806 133,3 232,4 298,4 61,0 160,-1 297,-4 -19,236 -34,461 -45,674 -12,214 -21,459 -25,736 -6,276 -9,494 -9,656 -123,-3 -222,-5 -296,-5 -71,0 -177,2 -319,5z"/>
   <path class="fil2" d="M11572 4667c20,-229 45,-640 74,-1234 29,-594 47,-1107 54,-1538 141,2 240,4 299,4 80,0 178,-2 292,-4l-49 741 -71 1653 -8 378c-111,-3 -205,-5 -282,-5 -25,0 -128,2 -309,5z"/>
   <path class="fil2" d="M12674 4667c20,-229 45,-640 74,-1234 29,-594 47,-1107 54,-1538 141,2 240,4 299,4 80,0 178,-2 292,-4l-49 741 -71 1653 -8 378c-111,-3 -205,-5 -282,-5 -25,0 -128,2 -309,5z"/>
   <path class="fil2" d="M13930 3050c19,-96 32,-164 36,-202 5,-39 14,-97 26,-176 184,-43 346,-73 488,-90 140,-18 276,-27 408,-27 149,0 286,18 410,52 124,34 222,90 293,165 70,76 105,185 105,327 0,77 -10,273 -32,589 -21,316 -34,642 -38,979 -103,-3 -197,-5 -284,-5 -82,0 -179,2 -290,5 18,-164 32,-353 43,-568l27 -505c-52,34 -91,58 -119,72 -27,13 -57,25 -91,37 -34,11 -94,29 -180,53 -85,23 -154,44 -206,61 -51,18 -98,39 -140,61 -41,22 -76,47 -104,74 -29,28 -50,57 -63,88 -13,30 -19,64 -19,99 0,57 16,106 50,147 33,41 75,70 125,86 51,16 110,25 178,25 44,0 89,-4 138,-11 48,-7 113,-24 195,-52 -29,77 -62,192 -100,345 -96,17 -173,27 -230,31 -57,4 -110,7 -159,7 -170,0 -311,-23 -420,-70 -110,-45 -191,-118 -243,-219 -52,-99 -79,-201 -79,-302 0,-58 11,-115 31,-172 20,-57 50,-109 89,-156 40,-48 90,-93 153,-137 62,-44 152,-87 270,-128 118,-41 274,-83 468,-125 51,-10 105,-24 161,-39 55,-16 99,-31 133,-45 33,-16 61,-35 86,-59 25,-23 43,-48 54,-74 11,-25 17,-52 17,-79 0,-54 -17,-99 -52,-137 -35,-37 -79,-64 -134,-78 -55,-15 -116,-22 -183,-22 -247,0 -520,59 -818,175z"/>
   <path class="fil3" d="M7126 840c28,-112 187,-208 336,-197 154,11 217,151 249,294 51,-54 122,-189 313,-191 166,-2 218,110 263,203 2,2 3,4 4,7l9 13c1,2 2,5 4,7 10,-309 -395,-381 -542,-211l-35 37c-25,-133 -158,-218 -319,-213 -144,4 -276,114 -282,251z"/>
   <path class="fil3" d="M8868 534c19,-102 180,-208 335,-196 164,12 205,151 249,293 48,-49 20,-62 127,-131 122,-79 273,-88 377,23 71,75 49,95 90,178 -6,-403 -425,-374 -541,-247l-34 39c-35,-83 -44,-112 -113,-154 -56,-35 -131,-58 -210,-55 -140,4 -281,115 -280,250z"/>
   <path class="fil3" d="M8989 1733c52,-64 53,-94 129,-138 159,-93 344,-62 423,147 15,38 19,74 37,102 65,-163 360,-277 506,-102 27,31 81,122 77,179 55,-344 -439,-452 -568,-208 -46,-87 -23,-103 -107,-156 -221,-141 -481,-19 -497,176z"/>
  </g>
 </g>
</svg>
